<svg width="1253" height="294" fill="none" xmlns="http://www.w3.org/2000/svg"><path fill-rule="evenodd" clip-rule="evenodd" d="M29.128 110.747C44.48 62.444 89.689 27.45 143.07 27.45c66.019 0 119.537 53.528 119.537 119.556 0 61.338-46.185 111.888-105.671 118.76v-37.65c26.077-4.418 47.98-21.095 59.571-43.893h-33.119c-10.025 10.842-24.372 17.631-40.306 17.631-30.305 0-54.873-24.556-54.873-54.848 0-30.291 24.568-54.846 54.873-54.846 16.408 0 31.135 7.198 41.191 18.609h32.723c-13.406-27.268-41.467-46.033-73.914-46.033-45.458 0-82.309 36.834-82.309 82.27 0 40.771 29.672 74.616 68.61 81.136v37.644c-46.958-5.353-85.656-37.919-99.94-81.541H.854C17.34 247.396 74.764 294 143.07 294c81.17 0 146.973-65.81 146.973-146.994C290.043 65.823 224.24.011 143.07.011 74.41.01 16.746 47.099.602 110.747h28.526zm397.074 90.351h-32.005v-47.312l9.13-.46h19.165c9.894-.153 17.548 2.01 22.959 6.493 5.566 4.329 8.35 10.358 8.35 18.089 0 7.112-2.475 12.754-7.422 16.928-4.948 4.174-11.673 6.262-20.177 6.262zm30.849-59.798c4.359-2.883 7.991-6.217 10.897-10.003 5.256-6.802 7.885-14.455 7.885-22.958 0-10.049-2.243-18.397-6.726-25.043-4.484-6.803-10.824-11.905-19.018-15.306-8.039-3.556-17.626-5.334-28.757-5.334l-27.135.307v-.075h-26.439v162.326h60.531c10.823 0 20.176-1.778 28.062-5.334 7.885-3.555 13.993-8.734 18.323-15.536 4.329-6.802 6.493-14.996 6.493-24.582 0-10.975-2.937-19.943-8.812-26.898-3.971-4.702-9.072-8.557-15.304-11.564zm-62.854-56.383h25.743c8.967-.153 15.926 1.78 20.873 5.798 5.102 4.02 7.652 9.74 7.652 17.16 0 7.266-2.241 12.986-6.724 17.16-4.329 4.02-10.36 6.031-18.09 6.031h-29.454V84.918zM586.1 212.855l.657 12.359h24.352l.695-63.538c0-12.059-1.855-22.184-5.566-30.379-3.71-8.194-9.354-14.376-16.931-18.55-7.421-4.176-16.775-6.262-28.061-6.262-8.814 0-16.466 1.315-22.961 3.943-6.338 2.628-11.595 6.182-15.769 10.667-4.176 4.482-7.577 9.274-10.205 14.376l23.655 8.348c2.783-4.791 6.262-8.348 10.437-10.667 4.174-2.319 8.968-3.478 14.379-3.478 5.875 0 10.591 1.392 14.147 4.174 3.71 2.783 6.417 6.803 8.117 12.059.905 2.797 1.569 5.966 1.993 9.508h-28.895c-14.534 0-25.898 3.169-34.092 9.507-8.041 6.339-12.06 15.536-12.06 27.596 0 11.284 3.788 20.021 11.364 26.203 7.73 6.184 18.553 9.276 32.469 9.276 14.069 0 24.427-4.483 31.077-13.45a41.81 41.81 0 0 0 1.198-1.692zm-.502-35.642v-1.855h-21.105c-10.36 0-17.626 1.468-21.801 4.405-4.174 2.783-6.262 6.804-6.262 12.059 0 4.483 1.779 8.039 5.335 10.667 3.71 2.473 8.812 3.71 15.305 3.71 5.722 0 10.669-1.313 14.844-3.943 4.33-2.781 7.653-6.337 9.972-10.667 2.474-4.482 3.712-9.274 3.712-14.376zm64.121 48.001V62.888h25.973V126.2c3.124-4.876 6.911-8.898 11.364-12.065 7.113-5.102 15.54-7.652 25.28-7.652 10.514 0 19.636 2.55 27.367 7.652 7.885 4.947 13.992 11.982 18.321 21.103 4.484 8.966 6.726 19.633 6.726 32.001 0 12.213-2.242 22.88-6.726 32.001-4.329 9.123-10.436 16.233-18.321 21.336-7.731 4.947-16.853 7.419-27.367 7.419-9.74 0-18.167-2.472-25.28-7.419-4.583-3.362-8.462-7.595-11.636-12.701l-1.118 17.337h-24.583zm29.685-38.725c-2.474-5.567-3.712-11.982-3.712-19.248 0-7.266 1.238-13.681 3.712-19.248 2.628-5.564 6.262-9.894 10.9-12.986 4.638-3.092 9.895-4.638 15.771-4.638 6.339 0 11.905 1.546 16.697 4.638 4.794 3.092 8.505 7.422 11.133 12.986 2.783 5.567 4.174 11.982 4.174 19.248 0 7.266-1.469 13.681-4.405 19.248-2.783 5.565-6.573 9.971-11.364 13.217-4.794 3.092-10.282 4.638-16.468 4.638-5.876 0-11.131-1.546-15.769-4.638-4.485-3.246-8.041-7.652-10.669-13.217zm120.639 85.8c4.64 1.392 8.814 2.088 12.524 2.088 7.732 0 14.071-1.546 19.018-4.638 4.947-2.937 9.045-7.189 12.292-12.755 3.401-5.565 6.724-12.058 9.972-19.479l53.805-128.237H879.36l-34.354 85.773-35.454-85.773h-28.294l51.553 115.059-6.328 14.801c-1.546 3.71-3.634 6.493-6.262 8.348-2.474 2.01-5.567 3.015-9.276 3.015-1.546 0-3.557-.463-6.031-1.391-2.474-.773-5.18-1.855-8.117-3.247l-9.742 21.102a78.994 78.994 0 0 0 12.988 5.334zm134.676-47.075V62.888h25.973v162.325h-25.973zm88.661-4.869c9.12 5.102 19.48 7.652 31.08 7.652 11.44 0 21.65-2.55 30.61-7.652 8.97-5.256 15.93-12.445 20.88-21.565 4.94-9.123 7.42-19.635 7.42-31.539s-2.55-22.416-7.66-31.537c-4.94-9.122-11.9-16.233-20.87-21.335-8.97-5.256-19.25-7.884-30.84-7.884-11.6 0-21.88 2.628-30.85 7.884-8.97 5.102-16 12.213-21.1 21.335-4.951 9.121-7.425 19.633-7.425 31.537s2.552 22.416 7.655 31.539c5.1 9.12 12.14 16.309 21.1 21.565zm48.01-20.87c-4.95 3.092-10.59 4.638-16.93 4.638-6.49 0-12.29-1.546-17.39-4.638-4.95-3.247-8.89-7.575-11.83-12.986-2.78-5.567-4.18-11.982-4.18-19.248 0-7.266 1.4-13.681 4.18-19.248 2.78-5.564 6.65-9.894 11.59-12.986 4.95-3.092 10.67-4.638 17.17-4.638 6.49 0 12.21 1.624 17.16 4.871 4.95 3.092 8.81 7.42 11.59 12.986 2.94 5.411 4.41 11.749 4.41 19.015s-1.39 13.681-4.17 19.248c-2.79 5.411-6.65 9.739-11.6 12.986zm76.08-90.207h24.35l1.23 16.125c3.07-4.959 6.83-8.942 11.29-11.951 6.65-4.638 14.54-6.957 23.66-6.957 14.07 0 24.89 4.329 32.47 12.986 7.73 8.503 11.59 21.643 11.59 39.422v66.321h-25.97V165.85c0-9.276-1.08-16.387-3.25-21.335-2.01-5.101-4.95-8.657-8.81-10.667-3.71-2.009-8.12-3.015-13.22-3.015-8.66-.153-15.38 2.706-20.18 8.581-4.79 5.874-7.19 14.299-7.19 25.277v60.523h-25.97V109.267z" fill="#000"/><path d="M173.165 146.942c0 16.653-13.5 30.152-30.153 30.152s-30.153-13.499-30.153-30.152 13.5-30.153 30.153-30.153 30.153 13.5 30.153 30.153z" fill="#FF7C2B"/></svg>